<svg width="28" height="17" viewBox="0 0 28 17" fill="none" xmlns="http://www.w3.org/2000/svg">
<path d="M27.3597 1.14364C27.5562 0.494545 27.3597 0 26.4225 0H23.3691C22.5831 0 22.2354 0.417273 22.0389 0.880909C22.0389 0.880909 20.482 4.76 18.2751 7.29455C17.5495 8.02091 17.2321 8.25273 16.8391 8.25273C16.6425 8.25273 16.3251 8.02091 16.3251 7.35636V1.14364C16.3251 0.355454 16.1437 0 15.4937 0H10.6718C10.1881 0 9.90088 0.370909 9.90088 0.726363C9.90088 1.46818 11.0346 1.65364 11.1101 3.77091V8.37636C11.1101 9.39636 10.9288 9.58182 10.5509 9.58182C9.52298 9.58182 6.98352 5.67182 5.48705 1.22091C5.18473 0.355454 4.89753 0 4.11151 0H1.04299C0.18139 0 0 0.417273 0 0.880909C0 1.71545 1.04299 5.82636 4.83707 11.2664C7.36142 14.9909 10.9288 17 14.1787 17C16.1286 17 16.3705 16.5518 16.3705 15.7791V12.9664C16.3705 12.0855 16.5518 11.9 17.1716 11.9C17.6251 11.9 18.396 12.1318 20.2099 13.9091C22.2959 16.0418 22.6284 17 23.8075 17H26.8609C27.7376 17 28.1759 16.5518 27.9341 15.6709C27.662 14.79 26.6643 13.5073 25.3493 11.9927C24.6388 11.1427 23.5656 10.2155 23.2331 9.73636C22.7796 9.14909 22.9156 8.88636 23.2331 8.34545C23.2331 8.34545 26.9667 2.98273 27.3597 1.14364Z" fill="white"/>
</svg>
