<svg width="20" height="20" viewBox="0 0 20 20" fill="none" xmlns="http://www.w3.org/2000/svg">
<g clip-path="url(#clip0_2351_25816)">
<path d="M18.75 10.613V18.113C18.75 18.803 18.1888 19.363 17.5 19.363H11.25V10.613H18.75Z" fill="black"/>
<path d="M1.25 5.6129H5.205C4.92125 5.41915 4.6775 5.22665 4.5075 5.05415C3.49875 4.0404 3.49875 2.3904 4.5075 1.37665C5.4875 0.389151 7.195 0.391651 8.17375 1.37665C8.71625 1.9204 10.1537 4.13415 9.955 5.6129H10.045C9.8475 4.13415 11.285 1.9204 11.8263 1.37665C12.8063 0.391651 14.5138 0.391651 15.4925 1.37665C16.5 2.3904 16.5 4.0404 15.4938 5.05415C15.3225 5.22665 15.0788 5.41915 14.795 5.6129H18.75C19.4388 5.6129 20 6.17415 20 6.8629V8.7379C20 9.0829 19.72 9.3629 19.375 9.3629H11.25V6.8629H8.75V9.3629H0.625C0.280001 9.3629 0 9.0829 0 8.7379V6.8629C0 6.17415 0.559999 5.6129 1.25 5.6129ZM11.3237 5.57165C11.3237 5.57165 11.3763 5.6129 11.555 5.6129C12.4187 5.6129 14.0675 4.7154 14.6062 4.1729C15.13 3.6454 15.13 2.7854 14.6062 2.2579C14.3525 2.0029 14.0163 1.8629 13.6588 1.8629C13.3025 1.8629 12.9662 2.0029 12.7125 2.2579C11.87 3.1054 11.0325 5.2704 11.3237 5.57165ZM8.44625 5.6129C8.62375 5.6129 8.67625 5.5729 8.67625 5.57165C8.9675 5.2704 8.13 3.1054 7.2875 2.2579C6.78375 1.74915 5.9025 1.74665 5.39375 2.2579C4.86875 2.7854 4.86875 3.6454 5.39375 4.1729C5.9325 4.7154 7.58125 5.6129 8.44625 5.6129Z" fill="black"/>
<path d="M8.75 10.613V19.363H2.5C1.81 19.363 1.25 18.803 1.25 18.113V10.613H8.75Z" fill="black"/>
</g>
<defs>
<clipPath id="clip0_2351_25816">
<rect width="20" height="20" fill="white" transform="matrix(-1 0 0 1 20 0)"/>
</clipPath>
</defs>
</svg>
